<svg width="184" height="32" viewBox="0 0 184 32" fill="none" xmlns="http://www.w3.org/2000/svg">
<path d="M39.5078 10.9492H35.9121L35.2285 13H33.0479L36.7529 3.04688H38.6533L42.3789 13H40.1982L39.5078 10.9492ZM36.4658 9.28809H38.9541L37.7031 5.5625L36.4658 9.28809ZM42.8916 9.24707C42.8916 8.1123 43.1605 7.19857 43.6982 6.50586C44.2406 5.81315 44.9697 5.4668 45.8857 5.4668C46.6969 5.4668 47.3281 5.74479 47.7793 6.30078L47.8613 5.60352H49.6523V12.7539C49.6523 13.401 49.5042 13.9639 49.208 14.4424C48.9163 14.9209 48.5039 15.2855 47.9707 15.5361C47.4375 15.7868 46.8132 15.9121 46.0977 15.9121C45.5553 15.9121 45.0267 15.8027 44.5117 15.584C43.9967 15.3698 43.6071 15.0918 43.3428 14.75L44.2178 13.5469C44.71 14.0983 45.307 14.374 46.0088 14.374C46.5329 14.374 46.9408 14.2327 47.2324 13.9502C47.5241 13.6722 47.6699 13.2757 47.6699 12.7607V12.3643C47.2142 12.8792 46.6149 13.1367 45.8721 13.1367C44.9834 13.1367 44.2633 12.7904 43.7119 12.0977C43.165 11.4004 42.8916 10.4775 42.8916 9.3291V9.24707ZM44.8672 9.39062C44.8672 10.0605 45.0016 10.5869 45.2705 10.9697C45.5394 11.348 45.9085 11.5371 46.3779 11.5371C46.9795 11.5371 47.4102 11.3115 47.6699 10.8604V7.75C47.4056 7.29883 46.9795 7.07324 46.3916 7.07324C45.9176 7.07324 45.5439 7.26693 45.2705 7.6543C45.0016 8.04167 44.8672 8.62044 44.8672 9.39062ZM55.333 7.45605C55.0641 7.4196 54.8271 7.40137 54.6221 7.40137C53.8747 7.40137 53.3848 7.6543 53.1523 8.16016V13H51.1768V5.60352H53.043L53.0977 6.48535C53.4941 5.80632 54.0433 5.4668 54.7451 5.4668C54.9639 5.4668 55.1689 5.49642 55.3604 5.55566L55.333 7.45605ZM58.375 13H56.3926V5.60352H58.375V13ZM56.2764 3.68945C56.2764 3.39323 56.3743 3.14941 56.5703 2.95801C56.7708 2.7666 57.042 2.6709 57.3838 2.6709C57.721 2.6709 57.9899 2.7666 58.1904 2.95801C58.391 3.14941 58.4912 3.39323 58.4912 3.68945C58.4912 3.99023 58.3887 4.23633 58.1836 4.42773C57.9831 4.61914 57.7165 4.71484 57.3838 4.71484C57.0511 4.71484 56.7822 4.61914 56.5771 4.42773C56.3766 4.23633 56.2764 3.99023 56.2764 3.68945ZM63.085 11.5439C63.4495 11.5439 63.7458 11.4437 63.9736 11.2432C64.2015 11.0426 64.32 10.776 64.3291 10.4434H66.1816C66.1771 10.9447 66.0404 11.4049 65.7715 11.8242C65.5026 12.2389 65.1335 12.5625 64.6641 12.7949C64.1992 13.0228 63.6842 13.1367 63.1191 13.1367C62.0618 13.1367 61.2279 12.8018 60.6172 12.1318C60.0065 11.4574 59.7012 10.5277 59.7012 9.34277V9.21289C59.7012 8.07357 60.0042 7.16439 60.6104 6.48535C61.2165 5.80632 62.0482 5.4668 63.1055 5.4668C64.0306 5.4668 64.7712 5.73112 65.3271 6.25977C65.8877 6.78385 66.1725 7.4834 66.1816 8.3584H64.3291C64.32 7.97559 64.2015 7.66569 63.9736 7.42871C63.7458 7.18717 63.445 7.06641 63.0713 7.06641C62.611 7.06641 62.2624 7.23503 62.0254 7.57227C61.793 7.90495 61.6768 8.44727 61.6768 9.19922V9.4043C61.6768 10.1654 61.793 10.7122 62.0254 11.0449C62.2578 11.3776 62.611 11.5439 63.085 11.5439ZM71.7393 12.248C71.2516 12.8405 70.5771 13.1367 69.7158 13.1367C68.9229 13.1367 68.3167 12.9089 67.8975 12.4531C67.4827 11.9974 67.2708 11.3298 67.2617 10.4502V5.60352H69.2373V10.3818C69.2373 11.152 69.5882 11.5371 70.29 11.5371C70.96 11.5371 71.4202 11.3047 71.6709 10.8398V5.60352H73.6533V13H71.7939L71.7393 12.248ZM77.2285 13H75.2461V2.5H77.2285V13ZM81.2275 3.78516V5.60352H82.4922V7.05273H81.2275V10.7441C81.2275 11.0176 81.2799 11.2135 81.3848 11.332C81.4896 11.4505 81.6901 11.5098 81.9863 11.5098C82.2051 11.5098 82.3988 11.4938 82.5674 11.4619V12.959C82.18 13.0775 81.7812 13.1367 81.3711 13.1367C79.9857 13.1367 79.2793 12.4372 79.252 11.0381V7.05273H78.1719V5.60352H79.252V3.78516H81.2275ZM88.0225 12.248C87.5348 12.8405 86.8604 13.1367 85.999 13.1367C85.2061 13.1367 84.5999 12.9089 84.1807 12.4531C83.766 11.9974 83.554 11.3298 83.5449 10.4502V5.60352H85.5205V10.3818C85.5205 11.152 85.8714 11.5371 86.5732 11.5371C87.2432 11.5371 87.7035 11.3047 87.9541 10.8398V5.60352H89.9365V13H88.0771L88.0225 12.248ZM95.583 7.45605C95.3141 7.4196 95.0771 7.40137 94.8721 7.40137C94.1247 7.40137 93.6348 7.6543 93.4023 8.16016V13H91.4268V5.60352H93.293L93.3477 6.48535C93.7441 5.80632 94.2933 5.4668 94.9951 5.4668C95.2139 5.4668 95.4189 5.49642 95.6104 5.55566L95.583 7.45605ZM100.621 13C100.53 12.8223 100.464 12.6012 100.423 12.3369C99.9443 12.8701 99.3223 13.1367 98.5566 13.1367C97.832 13.1367 97.2305 12.9271 96.752 12.5078C96.278 12.0885 96.041 11.5599 96.041 10.9219C96.041 10.138 96.3304 9.53646 96.9092 9.11719C97.4925 8.69792 98.3333 8.486 99.4316 8.48145H100.341V8.05762C100.341 7.71582 100.252 7.44238 100.074 7.2373C99.901 7.03223 99.6253 6.92969 99.2471 6.92969C98.9144 6.92969 98.6523 7.00944 98.4609 7.16895C98.2741 7.32845 98.1807 7.5472 98.1807 7.8252H96.2051C96.2051 7.39681 96.3372 7.00033 96.6016 6.63574C96.8659 6.27116 97.2396 5.98633 97.7227 5.78125C98.2057 5.57161 98.748 5.4668 99.3496 5.4668C100.261 5.4668 100.983 5.69694 101.517 6.15723C102.054 6.61296 102.323 7.25553 102.323 8.08496V11.291C102.328 11.9928 102.426 12.5238 102.617 12.8838V13H100.621ZM98.9873 11.626C99.279 11.626 99.5479 11.5622 99.7939 11.4346C100.04 11.3024 100.222 11.127 100.341 10.9082V9.63672H99.6025C98.6136 9.63672 98.0872 9.97852 98.0234 10.6621L98.0166 10.7783C98.0166 11.0244 98.1032 11.2272 98.2764 11.3867C98.4495 11.5462 98.6865 11.626 98.9873 11.626ZM105.926 13H103.943V2.5H105.926V13ZM118.258 4.70801H115.209V13H113.158V4.70801H110.15V3.04688H118.258V4.70801ZM122.093 13.1367C121.008 13.1367 120.124 12.804 119.44 12.1387C118.761 11.4733 118.422 10.5869 118.422 9.47949V9.28809C118.422 8.54525 118.565 7.88216 118.853 7.29883C119.14 6.71094 119.545 6.25977 120.069 5.94531C120.598 5.6263 121.2 5.4668 121.874 5.4668C122.886 5.4668 123.681 5.78581 124.26 6.42383C124.843 7.06185 125.135 7.96647 125.135 9.1377V9.94434H120.425C120.489 10.4274 120.68 10.8148 120.999 11.1064C121.323 11.3981 121.73 11.5439 122.223 11.5439C122.984 11.5439 123.578 11.2682 124.007 10.7168L124.978 11.8037C124.681 12.223 124.28 12.5511 123.774 12.7881C123.269 13.0205 122.708 13.1367 122.093 13.1367ZM121.867 7.06641C121.475 7.06641 121.156 7.19857 120.91 7.46289C120.669 7.72721 120.514 8.10547 120.445 8.59766H123.193V8.44043C123.184 8.00293 123.066 7.66569 122.838 7.42871C122.61 7.18717 122.286 7.06641 121.867 7.06641ZM129.339 11.5439C129.703 11.5439 130 11.4437 130.228 11.2432C130.455 11.0426 130.574 10.776 130.583 10.4434H132.436C132.431 10.9447 132.294 11.4049 132.025 11.8242C131.757 12.2389 131.387 12.5625 130.918 12.7949C130.453 13.0228 129.938 13.1367 129.373 13.1367C128.316 13.1367 127.482 12.8018 126.871 12.1318C126.26 11.4574 125.955 10.5277 125.955 9.34277V9.21289C125.955 8.07357 126.258 7.16439 126.864 6.48535C127.47 5.80632 128.302 5.4668 129.359 5.4668C130.285 5.4668 131.025 5.73112 131.581 6.25977C132.142 6.78385 132.426 7.4834 132.436 8.3584H130.583C130.574 7.97559 130.455 7.66569 130.228 7.42871C130 7.18717 129.699 7.06641 129.325 7.06641C128.865 7.06641 128.516 7.23503 128.279 7.57227C128.047 7.90495 127.931 8.44727 127.931 9.19922V9.4043C127.931 10.1654 128.047 10.7122 128.279 11.0449C128.512 11.3776 128.865 11.5439 129.339 11.5439ZM135.491 6.41016C136.015 5.78125 136.674 5.4668 137.467 5.4668C139.071 5.4668 139.884 6.39876 139.907 8.2627V13H137.932V8.31738C137.932 7.89355 137.84 7.58138 137.658 7.38086C137.476 7.17578 137.173 7.07324 136.749 7.07324C136.17 7.07324 135.751 7.29655 135.491 7.74316V13H133.516V2.5H135.491V6.41016ZM143.216 5.60352L143.277 6.45801C143.806 5.7972 144.515 5.4668 145.403 5.4668C146.187 5.4668 146.771 5.69694 147.153 6.15723C147.536 6.61751 147.732 7.30566 147.741 8.22168V13H145.766V8.26953C145.766 7.85026 145.674 7.5472 145.492 7.36035C145.31 7.16895 145.007 7.07324 144.583 7.07324C144.027 7.07324 143.61 7.31022 143.332 7.78418V13H141.356V5.60352H143.216ZM148.938 9.2334C148.938 8.49967 149.079 7.8457 149.361 7.27148C149.644 6.69727 150.049 6.25293 150.578 5.93848C151.111 5.62402 151.729 5.4668 152.431 5.4668C153.429 5.4668 154.242 5.77214 154.871 6.38281C155.505 6.99349 155.858 7.82292 155.931 8.87109L155.944 9.37695C155.944 10.5117 155.628 11.4232 154.994 12.1113C154.361 12.7949 153.511 13.1367 152.444 13.1367C151.378 13.1367 150.526 12.7949 149.888 12.1113C149.254 11.4277 148.938 10.498 148.938 9.32227V9.2334ZM150.913 9.37695C150.913 10.0788 151.045 10.6165 151.31 10.9902C151.574 11.3594 151.952 11.5439 152.444 11.5439C152.923 11.5439 153.297 11.3617 153.565 10.9971C153.834 10.6279 153.969 10.04 153.969 9.2334C153.969 8.54525 153.834 8.01204 153.565 7.63379C153.297 7.25553 152.918 7.06641 152.431 7.06641C151.948 7.06641 151.574 7.25553 151.31 7.63379C151.045 8.00749 150.913 8.58854 150.913 9.37695ZM159.246 13H157.264V2.5H159.246V13ZM160.572 9.2334C160.572 8.49967 160.714 7.8457 160.996 7.27148C161.279 6.69727 161.684 6.25293 162.213 5.93848C162.746 5.62402 163.364 5.4668 164.065 5.4668C165.063 5.4668 165.877 5.77214 166.506 6.38281C167.139 6.99349 167.493 7.82292 167.565 8.87109L167.579 9.37695C167.579 10.5117 167.262 11.4232 166.629 12.1113C165.995 12.7949 165.146 13.1367 164.079 13.1367C163.013 13.1367 162.16 12.7949 161.522 12.1113C160.889 11.4277 160.572 10.498 160.572 9.32227V9.2334ZM162.548 9.37695C162.548 10.0788 162.68 10.6165 162.944 10.9902C163.209 11.3594 163.587 11.5439 164.079 11.5439C164.558 11.5439 164.931 11.3617 165.2 10.9971C165.469 10.6279 165.604 10.04 165.604 9.2334C165.604 8.54525 165.469 8.01204 165.2 7.63379C164.931 7.25553 164.553 7.06641 164.065 7.06641C163.582 7.06641 163.209 7.25553 162.944 7.63379C162.68 8.00749 162.548 8.58854 162.548 9.37695ZM168.509 9.24707C168.509 8.1123 168.778 7.19857 169.315 6.50586C169.858 5.81315 170.587 5.4668 171.503 5.4668C172.314 5.4668 172.945 5.74479 173.396 6.30078L173.479 5.60352H175.27V12.7539C175.27 13.401 175.121 13.9639 174.825 14.4424C174.534 14.9209 174.121 15.2855 173.588 15.5361C173.055 15.7868 172.43 15.9121 171.715 15.9121C171.173 15.9121 170.644 15.8027 170.129 15.584C169.614 15.3698 169.224 15.0918 168.96 14.75L169.835 13.5469C170.327 14.0983 170.924 14.374 171.626 14.374C172.15 14.374 172.558 14.2327 172.85 13.9502C173.141 13.6722 173.287 13.2757 173.287 12.7607V12.3643C172.831 12.8792 172.232 13.1367 171.489 13.1367C170.601 13.1367 169.881 12.7904 169.329 12.0977C168.782 11.4004 168.509 10.4775 168.509 9.3291V9.24707ZM170.484 9.39062C170.484 10.0605 170.619 10.5869 170.888 10.9697C171.157 11.348 171.526 11.5371 171.995 11.5371C172.597 11.5371 173.027 11.3115 173.287 10.8604V7.75C173.023 7.29883 172.597 7.07324 172.009 7.07324C171.535 7.07324 171.161 7.26693 170.888 7.6543C170.619 8.04167 170.484 8.62044 170.484 9.39062ZM179.556 10.2041L180.923 5.60352H183.042L180.068 14.1484L179.904 14.5381C179.462 15.5042 178.733 15.9873 177.717 15.9873C177.43 15.9873 177.138 15.944 176.842 15.8574V14.3604L177.143 14.3672C177.516 14.3672 177.794 14.3102 177.977 14.1963C178.163 14.0824 178.309 13.8932 178.414 13.6289L178.646 13.0205L176.056 5.60352H178.182L179.556 10.2041ZM41.7021 25.6846C41.6247 26.7555 41.2282 27.5986 40.5127 28.2139C39.8018 28.8291 38.863 29.1367 37.6963 29.1367C36.4202 29.1367 35.4154 28.7083 34.6816 27.8516C33.9525 26.9902 33.5879 25.8099 33.5879 24.3105V23.7021C33.5879 22.7451 33.7565 21.902 34.0938 21.1729C34.431 20.4437 34.9118 19.8854 35.5361 19.498C36.165 19.1061 36.8942 18.9102 37.7236 18.9102C38.8721 18.9102 39.7972 19.2178 40.499 19.833C41.2008 20.4482 41.6064 21.3118 41.7158 22.4238H39.665C39.6149 21.7812 39.4349 21.3164 39.125 21.0293C38.8197 20.7376 38.3525 20.5918 37.7236 20.5918C37.04 20.5918 36.5273 20.8379 36.1855 21.3301C35.8483 21.8177 35.6751 22.5765 35.666 23.6064V24.3584C35.666 25.4339 35.8278 26.2201 36.1514 26.7168C36.4795 27.2135 36.9945 27.4619 37.6963 27.4619C38.3298 27.4619 38.8014 27.3184 39.1113 27.0312C39.4258 26.7396 39.6058 26.2907 39.6514 25.6846H41.7021ZM42.6113 25.2334C42.6113 24.4997 42.7526 23.8457 43.0352 23.2715C43.3177 22.6973 43.7233 22.2529 44.252 21.9385C44.7852 21.624 45.4027 21.4668 46.1045 21.4668C47.1025 21.4668 47.916 21.7721 48.5449 22.3828C49.1784 22.9935 49.5316 23.8229 49.6045 24.8711L49.6182 25.377C49.6182 26.5117 49.3014 27.4232 48.668 28.1113C48.0345 28.7949 47.1846 29.1367 46.1182 29.1367C45.0518 29.1367 44.1995 28.7949 43.5615 28.1113C42.9281 27.4277 42.6113 26.498 42.6113 25.3223V25.2334ZM44.5869 25.377C44.5869 26.0788 44.7191 26.6165 44.9834 26.9902C45.2477 27.3594 45.626 27.5439 46.1182 27.5439C46.5967 27.5439 46.9704 27.3617 47.2393 26.9971C47.5081 26.6279 47.6426 26.04 47.6426 25.2334C47.6426 24.5452 47.5081 24.012 47.2393 23.6338C46.9704 23.2555 46.5921 23.0664 46.1045 23.0664C45.6214 23.0664 45.2477 23.2555 44.9834 23.6338C44.7191 24.0075 44.5869 24.5885 44.5869 25.377ZM54.8408 26.9561C54.8408 26.7145 54.7201 26.5254 54.4785 26.3887C54.2415 26.2474 53.8587 26.1221 53.3301 26.0127C51.571 25.6436 50.6914 24.8962 50.6914 23.7705C50.6914 23.1143 50.9626 22.5674 51.5049 22.1299C52.0518 21.6878 52.765 21.4668 53.6445 21.4668C54.5833 21.4668 55.333 21.6878 55.8936 22.1299C56.4587 22.5719 56.7412 23.1462 56.7412 23.8525H54.7656C54.7656 23.57 54.6745 23.3376 54.4922 23.1553C54.3099 22.9684 54.0251 22.875 53.6377 22.875C53.305 22.875 53.0475 22.9502 52.8652 23.1006C52.6829 23.251 52.5918 23.4424 52.5918 23.6748C52.5918 23.8936 52.6943 24.0713 52.8994 24.208C53.109 24.3402 53.46 24.4564 53.9521 24.5566C54.4443 24.6523 54.859 24.7617 55.1963 24.8848C56.2399 25.2676 56.7617 25.9307 56.7617 26.874C56.7617 27.5485 56.4723 28.0954 55.8936 28.5146C55.3148 28.9294 54.5674 29.1367 53.6514 29.1367C53.0316 29.1367 52.4801 29.0273 51.9971 28.8086C51.5186 28.5853 51.1426 28.2822 50.8691 27.8994C50.5957 27.512 50.459 27.0951 50.459 26.6484H52.332C52.3503 26.9993 52.4801 27.2682 52.7217 27.4551C52.9632 27.6419 53.2868 27.7354 53.6924 27.7354C54.0706 27.7354 54.3555 27.6647 54.5469 27.5234C54.7428 27.3776 54.8408 27.1885 54.8408 26.9561ZM60.4053 19.7852V21.6035H61.6699V23.0527H60.4053V26.7441C60.4053 27.0176 60.4577 27.2135 60.5625 27.332C60.6673 27.4505 60.8678 27.5098 61.1641 27.5098C61.3828 27.5098 61.5765 27.4938 61.7451 27.4619V28.959C61.3577 29.0775 60.959 29.1367 60.5488 29.1367C59.1634 29.1367 58.457 28.4372 58.4297 27.0381V23.0527H57.3496V21.6035H58.4297V19.7852H60.4053ZM67.0566 29C66.9655 28.8223 66.8994 28.6012 66.8584 28.3369C66.3799 28.8701 65.7578 29.1367 64.9922 29.1367C64.2676 29.1367 63.666 28.9271 63.1875 28.5078C62.7135 28.0885 62.4766 27.5599 62.4766 26.9219C62.4766 26.138 62.766 25.5365 63.3447 25.1172C63.9281 24.6979 64.7689 24.486 65.8672 24.4814H66.7764V24.0576C66.7764 23.7158 66.6875 23.4424 66.5098 23.2373C66.3366 23.0322 66.0609 22.9297 65.6826 22.9297C65.3499 22.9297 65.0879 23.0094 64.8965 23.1689C64.7096 23.3285 64.6162 23.5472 64.6162 23.8252H62.6406C62.6406 23.3968 62.7728 23.0003 63.0371 22.6357C63.3014 22.2712 63.6751 21.9863 64.1582 21.7812C64.6413 21.5716 65.1836 21.4668 65.7852 21.4668C66.6966 21.4668 67.4189 21.6969 67.9521 22.1572C68.4899 22.613 68.7588 23.2555 68.7588 24.085V27.291C68.7633 27.9928 68.8613 28.5238 69.0527 28.8838V29H67.0566ZM65.4229 27.626C65.7145 27.626 65.9834 27.5622 66.2295 27.4346C66.4756 27.3024 66.6579 27.127 66.7764 26.9082V25.6367H66.0381C65.0492 25.6367 64.5228 25.9785 64.459 26.6621L64.4521 26.7783C64.4521 27.0244 64.5387 27.2272 64.7119 27.3867C64.8851 27.5462 65.1221 27.626 65.4229 27.626ZM77.5771 25.3564H75.9434V29H73.8926V19.0469H77.5908C78.7666 19.0469 79.6735 19.3089 80.3115 19.833C80.9495 20.3571 81.2686 21.0977 81.2686 22.0547C81.2686 22.7337 81.1204 23.3011 80.8242 23.7568C80.5326 24.208 80.0882 24.568 79.4912 24.8369L81.6445 28.9043V29H79.4434L77.5771 25.3564ZM75.9434 23.6953H77.5977C78.1126 23.6953 78.5114 23.5654 78.7939 23.3057C79.0765 23.0413 79.2178 22.679 79.2178 22.2188C79.2178 21.7493 79.0833 21.3802 78.8145 21.1113C78.5501 20.8424 78.1423 20.708 77.5908 20.708H75.9434V23.6953ZM84.7891 29H82.8066V21.6035H84.7891V29ZM82.6904 19.6895C82.6904 19.3932 82.7884 19.1494 82.9844 18.958C83.1849 18.7666 83.4561 18.6709 83.7979 18.6709C84.1351 18.6709 84.404 18.7666 84.6045 18.958C84.805 19.1494 84.9053 19.3932 84.9053 19.6895C84.9053 19.9902 84.8027 20.2363 84.5977 20.4277C84.3971 20.6191 84.1305 20.7148 83.7979 20.7148C83.4652 20.7148 83.1963 20.6191 82.9912 20.4277C82.7907 20.2363 82.6904 19.9902 82.6904 19.6895ZM89.499 27.5439C89.8636 27.5439 90.1598 27.4437 90.3877 27.2432C90.6156 27.0426 90.734 26.776 90.7432 26.4434H92.5957C92.5911 26.9447 92.4544 27.4049 92.1855 27.8242C91.9167 28.2389 91.5475 28.5625 91.0781 28.7949C90.6133 29.0228 90.0983 29.1367 89.5332 29.1367C88.4759 29.1367 87.6419 28.8018 87.0312 28.1318C86.4206 27.4574 86.1152 26.5277 86.1152 25.3428V25.2129C86.1152 24.0736 86.4183 23.1644 87.0244 22.4854C87.6305 21.8063 88.4622 21.4668 89.5195 21.4668C90.4447 21.4668 91.1852 21.7311 91.7412 22.2598C92.3018 22.7839 92.5866 23.4834 92.5957 24.3584H90.7432C90.734 23.9756 90.6156 23.6657 90.3877 23.4287C90.1598 23.1872 89.859 23.0664 89.4854 23.0664C89.0251 23.0664 88.6764 23.235 88.4395 23.5723C88.207 23.9049 88.0908 24.4473 88.0908 25.1992V25.4043C88.0908 26.1654 88.207 26.7122 88.4395 27.0449C88.6719 27.3776 89.0251 27.5439 89.499 27.5439ZM98.0098 29C97.9186 28.8223 97.8525 28.6012 97.8115 28.3369C97.333 28.8701 96.7109 29.1367 95.9453 29.1367C95.2207 29.1367 94.6191 28.9271 94.1406 28.5078C93.6667 28.0885 93.4297 27.5599 93.4297 26.9219C93.4297 26.138 93.7191 25.5365 94.2979 25.1172C94.8812 24.6979 95.722 24.486 96.8203 24.4814H97.7295V24.0576C97.7295 23.7158 97.6406 23.4424 97.4629 23.2373C97.2897 23.0322 97.014 22.9297 96.6357 22.9297C96.3031 22.9297 96.041 23.0094 95.8496 23.1689C95.6628 23.3285 95.5693 23.5472 95.5693 23.8252H93.5938C93.5938 23.3968 93.7259 23.0003 93.9902 22.6357C94.2546 22.2712 94.6283 21.9863 95.1113 21.7812C95.5944 21.5716 96.1367 21.4668 96.7383 21.4668C97.6497 21.4668 98.3721 21.6969 98.9053 22.1572C99.443 22.613 99.7119 23.2555 99.7119 24.085V27.291C99.7165 27.9928 99.8145 28.5238 100.006 28.8838V29H98.0098ZM96.376 27.626C96.6676 27.626 96.9365 27.5622 97.1826 27.4346C97.4287 27.3024 97.611 27.127 97.7295 26.9082V25.6367H96.9912C96.0023 25.6367 95.4759 25.9785 95.4121 26.6621L95.4053 26.7783C95.4053 27.0244 95.4919 27.2272 95.665 27.3867C95.8382 27.5462 96.0752 27.626 96.376 27.626Z" fill="black"/>
<circle cx="15" cy="16" r="14" stroke="black" stroke-width="2"/>
<path d="M12.4902 18.4062H9.67188L9.17969 20H6.98242L10.1113 11.4688H12.0449L15.1973 20H12.9883L12.4902 18.4062ZM10.1641 16.8184H11.998L11.0781 13.8594L10.1641 16.8184ZM21.8184 13.0566H19.2578V20H17.2012V13.0566H14.6875V11.4688H21.8184V13.0566Z" fill="black"/>
</svg>
