<svg width="106" height="106" viewBox="0 0 106 106" fill="none" xmlns="http://www.w3.org/2000/svg">
<g clip-path="url(#clip0_2_72)">
<path d="M105.861 49.6526C104.187 22.0368 81.1738 0 53.0001 0C24.8264 0 1.81321 22.0368 0.139526 49.6526C0.139526 50.7684 0.279 51.8842 0.418474 53C1.53426 62.2053 5.02111 70.7132 10.3211 77.8263C19.9448 90.9369 35.4264 99.4448 53.0001 99.4448C28.4527 99.4448 8.36848 80.3369 6.69479 56.3474C6.55532 55.2316 6.55532 54.1158 6.55532 53C6.55532 51.8842 6.55532 50.7684 6.69479 49.6526C8.36848 25.6632 28.4527 6.55527 53.0001 6.55527C70.5738 6.55527 86.0553 15.0632 95.679 28.1737C100.979 35.2869 104.466 43.7947 105.582 53C105.721 54.1158 105.861 55.2316 105.861 56.2079C105.861 55.0921 106 53.9763 106 52.8605C106 51.8842 106 50.7684 105.861 49.6526" fill="#B0B0B0"/>
<path d="M0.139474 56.3473C1.81316 83.9631 24.8263 106 53 106C81.1737 106 104.187 83.9631 105.861 56.3473C105.861 55.2315 105.721 54.1157 105.582 52.9999C104.466 43.7946 100.979 35.2867 95.679 28.1736C86.0553 15.0631 70.5737 6.55518 53 6.55518C77.5474 6.55518 97.6316 25.6631 99.3053 49.6525C99.4448 50.7683 99.4448 51.8841 99.4448 52.9999C99.4448 54.1157 99.4448 55.2315 99.3053 56.3473C97.6316 80.4762 77.5474 99.4446 53 99.4446C35.4263 99.4446 19.9447 90.9367 10.3211 77.8262C5.02105 70.7131 1.53421 62.2052 0.418421 52.9999C0.278947 51.8841 0.139474 50.7683 0.139474 49.792C0.139474 50.9078 0 52.0236 0 53.1394C0 54.1157 9.97594e-09 55.2315 0.139474 56.3473Z" fill="#B0B0B0"/>
<path d="M46.4448 10.1816V24.8264H56.6264C59.1369 24.8264 61.0896 22.8738 61.0896 20.3632C61.0896 19.108 60.5317 17.9921 59.6948 17.1553C60.2527 16.4579 60.671 15.4816 60.8105 14.5053C60.8105 12.1342 58.8579 10.1816 56.4869 10.1816H46.4448ZM49.7921 13.2501H55.9289C56.6263 13.2501 57.1844 13.8079 57.1844 14.5053C57.1844 15.2026 56.6263 15.7605 55.9289 15.7605H49.7921V13.2501ZM49.7921 18.8289H56.0685C56.9053 18.8289 57.4632 19.3869 57.4632 20.2237C57.4632 21.0605 56.9053 21.6185 56.0685 21.6185H49.7921V18.8289Z" fill="#B0B0B0"/>
<path d="M51.3265 27.6157L44.0737 42.2605H47.8396L48.9553 39.75H57.1844L58.3001 42.2605H62.0658L54.6737 27.6157H51.3265ZM53.0001 31.3816L55.5106 36.6816H50.4896L53.0001 31.3816Z" fill="#B0B0B0"/>
<path d="M58.0211 45.4685H62.2053L54.8132 54.9527V60.1132H51.3263V54.9527L43.9342 45.4685H48.1184L53.1395 52.1632L58.0211 45.4685Z" fill="#B0B0B0"/>
<path d="M82.0105 45.4685V60.1133H85.4973V54.5344H88.1473L92.3316 60.1133H96.5157L92.1921 54.3949C94.0052 53.837 95.4 52.1633 95.4 50.0712C95.4 47.5607 93.4474 45.4685 90.9368 45.4685H82.0105ZM85.6369 48.5369H90.658C91.3553 48.5369 92.0527 49.2343 92.0527 49.9317C92.0527 50.6291 91.4948 51.3264 90.658 51.3264H85.6369V48.5369Z" fill="#B0B0B0"/>
<path d="M10.7395 45.4685V60.1133H20.9211C23.4316 60.1133 25.3843 58.1606 25.3843 55.6501C25.3843 54.3948 24.8263 53.279 23.9895 52.4421C24.5474 51.7448 24.9657 50.7685 25.1052 49.7921C25.1052 47.4211 23.1526 45.4685 20.7816 45.4685H10.7395ZM14.0868 48.5369H20.2236C20.921 48.5369 21.479 49.0948 21.479 49.7921C21.479 50.4895 20.921 51.0474 20.2236 51.0474H14.0868V48.5369ZM14.0868 54.1158H20.3631C21.2 54.1158 21.7579 54.6737 21.7579 55.5106C21.7579 56.3474 21.2 56.9053 20.3631 56.9053H14.0868V54.1158Z" fill="#B0B0B0"/>
<path d="M34.7292 45.4685L27.4764 60.1133H31.2423L32.358 57.6028H40.5871L41.7028 60.1133H45.4685L38.0764 45.4685H34.7292ZM36.4028 49.2344L38.9133 54.5344H33.8923L36.4028 49.2344Z" fill="#B0B0B0"/>
<path d="M77.408 45.4685V48.6165H67.6448V51.0801H77.129V54.228H67.6448V56.9653H77.408V60.1133H64.158V45.4685H77.408Z" fill="#B0B0B0"/>
<path d="M46.3053 81.4529V96.0977H49.7921V90.5188H52.4421L56.6265 96.0977H60.8106L56.4869 90.3793C58.3001 89.8214 59.6949 88.1477 59.6949 86.0556C59.6949 83.5451 57.7422 81.4529 55.2317 81.4529H46.3053ZM49.9317 84.5213H54.9528C55.6502 84.5213 56.3476 85.2187 56.3476 85.9161C56.3476 86.6134 55.7897 87.3108 54.9528 87.3108H49.9317V84.5213Z" fill="#B0B0B0"/>
<path d="M59.6947 63.2886V66.4365H49.9316V68.9001H59.4158V72.0481H49.9316V74.7854H59.6947V77.9334H46.4447V63.2886H59.6947Z" fill="#B0B0B0"/>
</g>
<defs>
<clipPath id="clip0_2_72">
<rect width="106" height="106" fill="white"/>
</clipPath>
</defs>
</svg>
