<svg width="223" height="101" viewBox="0 0 223 101" fill="none" xmlns="http://www.w3.org/2000/svg">
<path d="M67.2873 44.8162C73.5358 44.8162 77.3356 45.9136 79.2501 48.2538C80.292 49.5287 80.8174 51.2199 80.829 53.3651C80.8349 54.5556 80.6831 55.8858 80.3767 57.3674L76.0953 77.9987C75.5028 80.8512 75.1439 83.0343 75.1526 84.8447C75.1555 85.4181 75.211 85.9508 75.2927 86.4515C73.5737 86.4515 64.9146 86.4515 63.5751 86.4515C63.5721 86.3263 63.5546 86.204 63.5546 86.0731C63.5488 85.2173 63.6159 84.315 63.6918 83.3777L63.8115 81.6866H63.1635L62.9096 82.0883C60.8054 85.4618 56.0308 87.5459 51.9391 87.5459C48.5479 87.5459 46.1197 86.6814 44.7189 84.967C43.175 83.0779 42.8072 80.1177 43.6215 76.1736C45.2208 68.4718 48.7317 65.2118 57.5368 63.2412C57.5426 63.2412 63.3854 61.9139 63.3854 61.9139C66.8525 61.1484 68.5277 59.6232 69.1464 56.6397C69.482 55.0038 69.3011 53.7377 68.5977 52.8761C67.9469 52.0815 66.9021 51.6798 65.4954 51.6798C62.3668 51.6798 60.6975 53.2952 59.6672 57.3091C58.5845 57.3091 50.9235 57.3091 49.2103 57.3091C52.0238 46.4783 61.6751 44.8162 67.2873 44.8162ZM67.1589 66.0588C67.1589 66.0588 66.9225 66.2742 66.4702 66.4518C65.7289 66.737 64.0858 67.0019 63.0701 67.2551C62.2851 67.4531 61.395 67.6772 60.4377 68.0818C57.8841 69.1588 56.5678 70.9256 55.8878 74.174C55.4938 76.0718 55.7244 77.6261 56.5649 78.6536C57.1924 79.4249 58.1205 79.8295 59.2382 79.8295C63.8056 79.8295 65.2386 75.4722 65.9186 72.1888L67.191 66.0588H67.1589Z" fill="#B0B0B0"/>
<path d="M109.159 82.81C106.687 79.7829 106.199 75.0209 107.906 66.5419C111.63 48.0762 118.667 44.8162 124.79 44.8162C127.702 44.8162 132.083 45.8931 132.6 50.9869L132.681 51.7786H133.531C133.531 51.7786 134.526 46.9876 134.745 45.9193C135.898 45.9193 144.422 45.9193 146.127 45.9193C145.712 47.9074 137.672 86.4514 137.672 86.4514C135.664 96.1354 129.433 100.958 117.996 100.958C107.402 100.958 105.829 94.7266 105.589 92.7997C105.499 92.0662 105.744 89.9035 105.744 89.9035C106.964 89.9035 115.273 89.9035 116.822 89.9035C116.822 89.9122 116.822 89.9122 116.822 89.9122C116.828 90.899 116.904 92.3485 117.237 92.7589C117.695 93.3207 118.074 93.9844 119.834 93.9844C122.166 93.9844 124.399 93.3149 125.487 88.061L127.373 78.965H126.465L126.211 79.3957C123.943 83.3107 119.718 85.29 115.264 85.29C112.524 85.29 110.521 84.4837 109.159 82.81ZM120.459 65.6454C119.216 71.6561 119.268 73.9643 120.488 75.4575C121.092 76.1998 121.997 76.5578 123.249 76.5578C126.71 76.5578 128.397 74.462 130.157 66.0034C131.412 59.9462 131.543 56.0982 130.341 54.6224C129.751 53.9064 128.887 53.5513 127.697 53.5513C124.122 53.5513 122.213 57.1868 120.459 65.6454Z" fill="#B0B0B0"/>
<path d="M164.379 45.9196C163.973 47.8727 156.245 85.1564 155.974 86.4517C154.806 86.4517 145.385 86.4517 143.649 86.4517C144.058 84.4927 151.794 47.2149 152.066 45.9196C153.23 45.9196 162.648 45.9196 164.379 45.9196Z" fill="#B0B0B0"/>
<path d="M187.008 32.3963C186.597 34.3844 176.07 85.136 175.793 86.4517C174.625 86.4517 165.21 86.4517 163.471 86.4517C163.882 84.4578 174.412 33.7091 174.687 32.3963C175.86 32.3963 185.272 32.3963 187.008 32.3963Z" fill="#B0B0B0"/>
<path d="M206.767 32.3963C206.35 34.3844 195.823 85.136 195.543 86.4517C194.378 86.4517 184.954 86.4517 183.224 86.4517C183.641 84.4578 194.171 33.7091 194.442 32.3963C195.613 32.3963 205.036 32.3963 206.767 32.3963Z" fill="#B0B0B0"/>
<path d="M110.913 44.8164C106.873 44.8164 102.07 47.637 99.7232 52.1661L99.481 52.6347H98.5792C98.5792 52.6347 99.6619 47.4099 99.9684 45.9196C99.7378 45.9196 99.3701 45.9196 98.9119 45.9196V45.9138C97.5723 45.9138 88.9132 45.9138 87.1913 45.9138C87.2759 46.4203 87.3285 46.95 87.3314 47.5263C87.3402 48.8274 87.1534 50.3294 86.8265 52.134C84.5442 63.1395 80.0119 84.9672 79.7054 86.4517C81.439 86.4517 90.8598 86.4517 92.033 86.4517C92.821 82.6444 96.6647 64.0855 96.6647 64.0855C97.8262 58.5027 101.109 55.9035 106.987 55.9035C108.003 55.9035 108.893 55.9588 109.772 56.0868C110.046 54.7712 111.765 46.4785 112.106 44.8164C111.508 44.8164 110.913 44.8164 110.913 44.8164Z" fill="#B0B0B0"/>
<path d="M8.91785 84.3409C5.84179 80.5744 5.70462 73.6469 8.45089 60.4234C12.8344 39.2856 19.1763 32.1514 33.5701 32.1514C39.3224 32.1514 43.3616 33.5194 45.568 36.2177C46.9951 37.9612 47.716 40.3451 47.7335 43.3286C47.7422 44.9557 47.5438 46.7662 47.1323 48.7426C47.1323 48.7426 46.7558 50.5473 46.5457 51.5689C45.3753 51.5689 34.4136 51.5689 34.4136 51.5689C34.4136 51.5689 35.3125 45.7998 35.3037 44.5279C35.295 43.0958 35.2395 42.3215 34.6909 41.5997C34.1217 40.8516 33.2783 40.252 31.9504 40.252C26.5892 40.252 24.8264 45.3458 21.7737 60.0654C19.401 71.49 18.5546 76.7352 20.3845 78.9764C21.0791 79.8206 22.1239 80.231 23.5919 80.231C27.8149 80.231 29.4785 76.6217 31.6002 66.5767C32.7646 66.5767 42.0891 66.5767 43.8227 66.5767C43.5805 67.741 43.1807 69.6621 43.1807 69.6621C40.6095 82.0502 33.3308 88.3345 21.5402 88.3345C15.1546 88.3345 11.1446 87.0596 8.91785 84.3409Z" fill="#B0B0B0"/>
<path d="M209.385 32.3671H213.083L212.957 32.955H211.434L210.339 38.238H209.688L210.783 32.955H209.262L209.385 32.3671Z" fill="#B0B0B0"/>
<path d="M217.556 32.3671H218.7L217.483 38.238H216.832L217.833 33.4004C217.886 33.1501 217.953 32.9085 217.988 32.6581H217.973C217.83 33.0016 217.731 33.2199 217.629 33.447L215.402 38.238H214.626L214.401 33.3771C214.389 33.1734 214.381 32.9783 214.381 32.6581H214.363C214.311 32.9085 214.273 33.1646 214.22 33.4179L213.222 38.238H212.571L213.788 32.3671H214.941L215.142 36.9486C215.154 37.1989 215.137 37.4405 215.087 37.8189H215.105C215.207 37.5191 215.306 37.2309 215.437 36.9398L217.556 32.3671Z" fill="#B0B0B0"/>
<path d="M165.435 41.137C166.401 18.8582 139.467 2.13311 114.33 7.3346C89.205 12.5332 77.0613 34.3492 73.886 41.0904H77.9952C83.4965 31.8634 89.0649 24.7001 98.5587 22.0338C104.588 20.3369 109.325 20.7269 120.987 27.2149C126.36 30.2043 138.515 39.1926 151.576 40.9886C157.246 41.7686 165.435 41.137 165.435 41.137Z" fill="#B0B0B0"/>
</svg>
