<svg width="182" height="105" viewBox="0 0 182 105" fill="none" xmlns="http://www.w3.org/2000/svg">
<g clip-path="url(#clip0_2_63)">
<path d="M133.242 76.2457L146.669 20.5489H117.845L105.562 70.5027C103.779 80.2383 93.3 84.7956 85.8608 84.912H65.4345L58.5049 104.991H101.426C112.012 104.991 127.65 99.58 133.242 76.2457" fill="#B0B0B0"/>
<path d="M72.7393 56.605L86.2877 -0.010242H115.949L100.531 64.3873C97.5652 76.8219 88.3084 79.8098 79.7596 79.8098H11.3827C3.84856 79.8098 -2.46369 76.6106 0.955807 62.2531L7.11262 36.5648C10.2342 23.5395 19.9357 20.5603 26.9517 20.5603H74.6736L70.8309 36.6122H46.467C42.8835 36.6122 40.919 37.3883 39.9173 41.5662L35.9884 57.9631C34.5808 63.8484 36.6403 64.258 40.9622 64.258H63.2839C67.3726 64.258 70.9648 63.9993 72.7393 56.605" fill="#B0B0B0"/>
<path d="M153.183 20.5527L139.22 79.8152H168.039L181.998 20.5527H153.183V20.5527Z" fill="#B0B0B0"/>
</g>
<defs>
<clipPath id="clip0_2_63">
<rect width="182" height="105" fill="white"/>
</clipPath>
</defs>
</svg>
