<svg width="192" height="127" viewBox="0 0 192 127" fill="none" xmlns="http://www.w3.org/2000/svg">
<g clip-path="url(#clip0_2_51)">
<path d="M97.9924 1.8579e-05C112.926 1.8579e-05 128.142 3.20021 142.439 10.0803C147.485 22.1079 149.79 34.4896 149.79 46.5734C149.79 58.6224 147.514 70.8644 142.466 83.0047C128.113 89.9182 112.949 93.0879 97.9963 93.0879C83.0517 93.0879 67.8945 89.9182 53.5255 83.0047C48.4766 70.8658 46.207 58.623 46.207 46.5734C46.207 34.4899 48.506 22.1076 53.5546 10.0803C67.8549 3.19994 83.0742 -0.000244141 97.9963 -0.000244141" fill="#B0B0B0"/>
<path d="M56.6559 80.1085C52.4821 69.6998 50.1963 58.3868 50.1963 46.5736C50.1963 34.7331 52.4854 23.407 56.679 12.9731C69.1016 7.1817 83.2424 3.93396 97.9916 3.93396C112.746 3.93396 126.896 7.18183 139.31 12.9731C143.502 23.4063 145.794 34.7328 145.794 46.5736C145.794 58.3862 143.515 69.6995 139.336 80.1085C126.915 85.908 112.759 89.1576 97.9916 89.1576C83.2318 89.1576 69.0768 85.908 56.6553 80.1085" fill="#B0B0B0"/>
<path d="M136.969 77.9345C134.358 73.6588 130.851 70.2056 130.813 70.1727C130.77 70.1514 130.084 69.9396 130.084 69.9396C122.641 67.6638 117.762 65.9528 115.605 64.8412C112.638 63.3076 109.52 59.5853 109.177 59.1665C105.698 58.9054 102.82 58.9612 100.05 59.2946L98.2861 59.5228C94.9226 59.9546 91.4502 60.4111 88.0471 59.8676C85.7812 59.4982 83.5811 58.7806 81.249 58.0253C77.6562 56.8545 73.9757 55.6527 69.7705 55.6592H69.6022L69.6748 55.807C70.6304 57.6559 74.4048 63.2667 79.1315 64.8085C80.1746 65.058 80.9287 65.3339 81.2557 65.5884C81.2557 65.5998 83.0645 69.2615 83.558 70.2517C80.617 68.9234 71.5201 64.3208 64.1811 55.4356V55.4225C64.1811 55.3042 63.9913 53.5753 63.9517 53.1975C68.3219 51.5752 78.1635 50.6344 79.2726 50.5293L79.3535 50.5227L79.3881 50.4341C79.9757 45.2832 81.202 41.1616 83.4993 36.6479C83.5653 36.5116 83.6049 36.3868 83.6049 36.2784C83.6049 36.1996 83.5818 36.1191 83.5488 36.0551C83.4201 35.8121 83.1049 35.7645 83.0917 35.7645C83.0917 35.7645 76.7377 34.661 76.3944 34.6019C76.3581 34.4903 75.726 32.5609 75.6715 32.4001C80.4988 30.6136 86.4503 28.942 89.857 28.2064C90.4329 27.2918 90.5947 26.7943 90.5947 26.1966C90.5947 25.6892 90.3488 25.2574 89.857 24.9257C87.4424 23.2968 79.8374 24.2771 72.1436 27.2129C72.1271 27.1817 72.1271 27.1752 72.104 27.1423C73.7016 25.9535 76.5568 24.1867 78.6742 23.2081L78.7567 23.1621L78.7319 23.0833C78.1576 21.1473 74.3997 19.6664 73.9772 19.5153C73.9854 19.4496 73.9921 19.4053 73.9987 19.3544C77.8194 19.095 80.3544 20.8732 81.1284 22.1408L81.168 22.2032L81.2439 22.1786C81.7341 22.0209 83.4604 21.4758 85.3287 21.2558L85.4376 21.2508L85.4079 21.1375C84.794 17.8813 81.6698 15.7073 80.6053 15.0522C80.635 14.9997 80.6449 14.98 80.6746 14.9422C84.3633 15.2263 87.7713 18.3871 88.5386 21.0586L88.5601 21.1308L88.636 21.1374C89.6262 21.1719 90.8277 21.2819 91.6315 21.4166L91.7141 21.4297L91.7438 21.3607C92.0441 20.6596 92.191 19.9108 92.191 19.1407C92.191 16.7353 90.8245 14.1556 89.1444 12.5252C89.1774 12.4792 89.1923 12.4365 89.2352 12.3971C94.0807 14.2263 95.3136 17.7008 95.3136 20.9355C95.3136 23.1999 94.7096 25.3558 94.3201 26.7301L94.1567 27.2998C94.1567 27.2998 101.293 26.4427 101.775 26.3852C101.049 27.2998 99.4842 28.9286 96.36 30.6446C96.36 30.6282 93.1401 30.2357 93.1401 30.2357L93.0559 30.2226L93.0278 30.3047C92.8116 30.9664 90.9269 36.8908 90.9169 41.2454C90.9169 42.8595 91.3757 44.1123 92.2818 44.976C93.8959 46.5211 96.5696 46.6064 98.4378 46.5342C106.381 46.2452 112.58 46.7312 116.881 47.9973L117.135 48.0662L117.175 48.0071C117.442 47.5983 117.652 46.8397 117.652 45.8347C117.652 43.9267 116.885 41.0828 114.303 37.8662C114.331 37.8432 114.331 37.8267 114.364 37.8021C114.792 38.0369 121.76 41.9744 122.691 47.9184C122.527 47.9808 119.352 49.2698 119.352 49.2698L119.454 49.3733C122.398 52.4405 123.415 56.1465 124.23 59.1136C124.879 61.4649 125.653 62.9674 126.68 63.8491C127.87 64.8705 132.378 67.0116 133.732 67.6404C134.857 69.2315 136.791 72.2133 138.194 74.5221V74.5173C141.241 65.5224 142.799 56.1466 142.799 46.5744C142.799 35.7553 140.815 25.1916 136.937 15.1452C124.93 9.75134 111.488 6.88428 97.9888 6.88428C84.4886 6.88428 71.061 9.75121 59.0514 15.1452C55.1681 25.1927 53.1859 35.7556 53.1859 46.5744C53.1859 57.3672 55.1648 67.9072 59.0283 77.9497C71.0399 83.3519 84.4826 86.2057 97.9894 86.2057C111.503 86.2057 124.945 83.3519 136.955 77.9497L136.971 77.9349L136.969 77.9345Z" fill="url(#paint0_radial_2_51)"/>
<path d="M0 122.367C0 122.367 2.35293 123.203 4.98748 123.203C7.7913 123.203 9.54243 122.822 10.5207 121.84C11.3313 121.032 11.655 119.68 11.6103 117.687V104.426H15.7608V118.261C15.7001 124.386 12.7061 127 5.7412 127C2.35922 127 0.00021125 126.47 0.00021125 126.47V122.367L0 122.367Z" fill="#B0B0B0"/>
<path d="M28.8422 123.373C26.4209 123.373 22.3467 122.628 22.3467 117.653C22.3467 114.086 24.7153 112.038 28.8422 112.038C32.969 112.038 35.3308 114.086 35.3308 117.653C35.3308 122.628 31.2688 123.373 28.8422 123.373ZM18.2111 117.843C18.2111 122.065 20.9965 126.999 28.8422 126.999C36.6914 126.999 39.4777 122.065 39.4777 117.843C39.4777 111.935 35.5019 108.403 28.8422 108.403C22.1871 108.403 18.2111 111.935 18.2111 117.843Z" fill="#B0B0B0"/>
<path d="M56.854 108.825V115.89H46.0747V108.825H41.9321V126.585H46.0747V119.521H56.854V126.585H60.994V108.825H56.854Z" fill="#B0B0B0"/>
<path d="M138.812 123.154V119.725H148.369V116.093H138.812V112.665H151.167V109.029H134.672V126.788H151.167V123.153H138.812V123.154Z" fill="#B0B0B0"/>
<path d="M120.216 122.95V119.521H129.772V115.89H120.216V112.461H132.57V108.825H116.075V126.585H132.57V122.949H120.216V122.95Z" fill="#B0B0B0"/>
<path d="M101.275 104.405C109.21 104.405 113.954 108.618 113.954 115.655C113.954 120.702 110.632 126.585 101.275 126.585H96.0503H91.2576V104.405H96.0503H101.275V104.405ZM95.416 108.073V122.927H101.275C104.453 122.927 109.785 121.952 109.785 115.43C109.785 110.75 106.684 108.073 101.275 108.073H95.416V108.073Z" fill="#B0B0B0"/>
<path d="M166.531 116.462C167.39 116.462 168.823 116.193 168.823 114.437C168.823 113.178 167.989 112.461 166.531 112.461H158.963V116.453L166.531 116.462V116.462ZM173.606 126.586H168.597L163.603 120.086H158.738V126.586H154.595V108.826H166.307C170.339 108.826 172.741 110.958 172.741 114.525C172.741 116.664 171.541 119.067 168.399 119.816L173.606 126.586L173.606 126.586Z" fill="#B0B0B0"/>
<path d="M79.2808 126.585L68.5067 114.479V126.585H64.3667V108.825H68.4742L79.2807 120.811V108.825H83.4277V126.585H79.2807H79.2808Z" fill="#B0B0B0"/>
</g>
<defs>
<radialGradient id="paint0_radial_2_51" cx="0" cy="0" r="1" gradientUnits="userSpaceOnUse" gradientTransform="translate(100.087 39.76) rotate(-92.0771) scale(47.2808 48.7127)">
<stop stop-color="#B0B0B0"/>
<stop offset="0.0001" stop-color="#5E5E5E"/>
<stop offset="1" stop-color="#5A5A5A"/>
</radialGradient>
<clipPath id="clip0_2_51">
<rect width="192" height="127" fill="white"/>
</clipPath>
</defs>
</svg>
